inDegrees=no
num_controls=7
num_derivatives=13
num_iterations=132
num_multipliers=7
num_parameters=0
num_slacks=7
num_states=26
objective=0.464324
objective_accelerations=0.062174
objective_balance=0.004047
objective_effort=0.050966
objective_height=0.341461
objective_ligament=0.005677
solver_duration=1819.614758
status=Solve_Succeeded
success=true
DataType=double
version=3
OpenSimVersion=4.5
endheader
time	/jointset/ground_pelvis/pelvis_tilt/value	/jointset/ground_pelvis/pelvis_tx/value	/jointset/ground_pelvis/pelvis_ty/value	/jointset/hip_l/hip_flexion_l/value	/jointset/hip_l/hip_adduction_l/value	/jointset/hip_l/hip_rotation_l/value	/jointset/back/lumbar_extension/value	/jointset/patellofemoral_l/patellar_flexion_l/value	/jointset/knee_l/knee_flexion_l/value	/jointset/knee_l/knee_adduction_l/value	/jointset/knee_l/knee_rotation_l/value	/jointset/ankle_l/ankle_angle_l/value	/jointset/subtalar_l/subtalar_angle_l/value	/jointset/ground_pelvis/pelvis_tilt/speed	/jointset/ground_pelvis/pelvis_tx/speed	/jointset/ground_pelvis/pelvis_ty/speed	/jointset/hip_l/hip_flexion_l/speed	/jointset/hip_l/hip_adduction_l/speed	/jointset/hip_l/hip_rotation_l/speed	/jointset/back/lumbar_extension/speed	/jointset/patellofemoral_l/patellar_flexion_l/speed	/jointset/knee_l/knee_flexion_l/speed	/jointset/knee_l/knee_adduction_l/speed	/jointset/knee_l/knee_rotation_l/speed	/jointset/ankle_l/ankle_angle_l/speed	/jointset/subtalar_l/subtalar_angle_l/speed	/forceset/tau_hip_flexion_l	/forceset/tau_hip_adduction_l	/forceset/tau_hip_rotation_l	/forceset/tau_knee_flexion_l	/forceset/tau_ankle_angle_l	/forceset/tau_subtalar_angle_l	/forceset/tau_lumbar_extension	lambda_cid13_p0	lambda_cid13_p1	lambda_cid13_p2	lambda_cid13_p3	lambda_cid13_p4	lambda_cid13_p5	lambda_cid14_p0	/jointset/ground_pelvis/pelvis_tilt/accel	/jointset/ground_pelvis/pelvis_tx/accel	/jointset/ground_pelvis/pelvis_ty/accel	/jointset/hip_l/hip_flexion_l/accel	/jointset/hip_l/hip_adduction_l/accel	/jointset/hip_l/hip_rotation_l/accel	/jointset/back/lumbar_extension/accel	/jointset/patellofemoral_l/patellar_flexion_l/accel	/jointset/knee_l/knee_flexion_l/accel	/jointset/knee_l/knee_adduction_l/accel	/jointset/knee_l/knee_rotation_l/accel	/jointset/ankle_l/ankle_angle_l/accel	/jointset/subtalar_l/subtalar_angle_l/accel	gamma_cid13_p0	gamma_cid13_p1	gamma_cid13_p2	gamma_cid13_p3	gamma_cid13_p4	gamma_cid13_p5	gamma_cid14_p0
1	-0.1499400900831027	-0.0704544567098932	0.5436778663268125	1.753384766836923	-0.3078977040169153	0.09608645678618344	-0.959910547740297	1.779132833776909	1.779132833776877	0.0750106731718405	-0.1745125338967256	0.3041828129666178	0.1036930667249677	0.07505449817380416	0.01523165242516754	0.07928902526149659	-0.2989351874539651	-0.01401131690572196	-0.06004692565918363	0.0003267955289255691	-0.1595512950992546	-0.1595512950992438	-0.009488371035372693	1.810985180648917e-05	0.05657286474009618	0.009815971501675597	-0.4224516395937899	-0.002043702850715124	-0.01810549615325203	-0.4471038406318798	0.05894615667717753	0.01211402485572942	0.4599635779559418	-36.62584860458514	7.27587739976906	-8.609450918692396	20.65189246791022	-845.3471201781665	-57.48532623108308	-0.03683968034964009	0.3386140573131181	-0.260596582572773	2.35616364867109	-6.760433420024059	-0.2223793000972522	-1.620345922514257	-0.03813779493653346	-6.544743125554764	-6.544743125554926	-1.053760487856689	-0.02534703830417692	-0.5794733691152901	-0.5670606375234396	8.112683259279109e-09	-2.095068254175344e-08	-1.35014404509119e-07	-3.494558255231198e-08	-2.657341316489248e-08	-3.68499204279611e-08	5.282986296167215e-09
1.01	-0.1491726029302869	-0.07031505111009419	0.5445884014874006	1.750057896425302	-0.3080480653864393	0.09540688381216456	-0.9599088973394998	1.77721047167349	1.777210471673517	0.07486209983720564	-0.1745123398138606	0.3047194468343299	0.1037639698081945	0.07846588573316736	0.01266321014447309	0.1028052133292177	-0.3664062880472285	-0.01604642199282419	-0.07585711833819013	9.021296704099224e-06	-0.2249062059008552	-0.2249062059008154	-0.02021916069041256	2.116521094539732e-05	0.05071427175063446	0.004363525579663505	-0.4217504851907856	-0.001838083031067523	-0.01806867154187857	-0.447307496682264	0.05900143610963645	0.01234423692522184	0.4596693120106894	-36.56057574177374	7.15142499228271	-8.574712452939867	20.39696946439556	-844.982562656705	-57.65440312473682	-0.03689063399226736	0.3458421392992383	-0.2529157276670042	2.347420185322315	-6.735559178797575	-0.1918649728501262	-1.559776013090523	-0.02773673788295977	-6.528628594449191	-6.52862859444475	-1.081667728397227	0.01316260474648192	-0.5950010212493639	-0.5344753624151248	8.426874971911957e-09	-5.194181036275605e-08	-1.742131029546317e-07	-4.523757284793139e-08	-3.576444094821088e-08	-9.053271179852596e-08	7.426064392891404e-09
1.02	-0.1483703136950683	-0.0702009194684719	0.545733713288566	1.746057292847786	-0.308218335578801	0.09456952489685677	-0.9599102525811094	1.774635007754657	1.774635007754743	0.07460643270120067	-0.1745121090210603	0.3051963050206699	0.1037803206736261	0.08201491465458517	0.01017686078982365	0.1262443533769271	-0.433681820633295	-0.01799308147326285	-0.09160411391706352	-0.0002743329562357925	-0.2901716581819155	-0.2901716581818465	-0.03090713130823666	2.545183902645809e-05	0.04461772846566247	-0.001094472057350068	-0.421049330787775	-0.001632463211418998	-0.01803184693051875	-0.4475111527326495	0.05905671554209341	0.01257444899471476	0.4593750460654423	-36.49859306851801	7.026338516509128	-8.538489960348903	20.18238084268825	-844.6559706578907	-57.80383523810245	-0.03695694059646486	0.3661423297240514	-0.2441779973637756	2.340754044668743	-6.721319818584707	-0.2046901787645372	-1.607706502487636	-0.03125379908027448	-6.526851421446715	-6.526851421446801	-1.045196680413534	-0.02510078451574635	-0.6270634282173597	-0.5681709805237408	8.078962443499298e-09	-8.160084096356723e-08	-2.101793271586009e-07	-5.35461523787273e-08	-4.419601027076225e-08	-1.382389790823917e-07	9.109611201109216e-09
1.03	-0.1475316482127587	-0.0701111477072465	0.5471130002522905	1.741384865585498	-0.3084076111137489	0.09357499831832114	-0.9599141636323782	1.771407407797544	1.771407407797565	0.07424417793446178	-0.1745118389401124	0.3056109412637475	0.1037420662664895	0.08576110514803065	0.007800443069954641	0.1495975274821349	-0.5007779412011583	-0.01984430495252302	-0.1072871034596323	-0.0004922654214929655	-0.3553271449324715	-0.355327144932462	-0.04153324079639979	2.977140927196584e-05	0.03826424900999886	-0.006555172288975162	-0.4204824369571645	-0.001391777509850767	-0.01794494494307606	-0.4475416620140251	0.05921998661050525	0.01288731996679164	0.4592879253774049	-36.38702686105784	6.844222487543531	-8.478956210329981	19.78580945166084	-844.3055646712426	-58.01543718096443	-0.03703441956120629	0.3852937893059956	-0.230943334238177	2.330261735545336	-6.699906574039066	-0.1726385103002488	-1.54648629851962	-0.01472118797123967	-6.506721223478539	-6.5067212234874	-1.069732882127667	0.01332330575843345	-0.6462873446472498	-0.534786614457296	7.724293749361683e-09	-1.112462787356009e-07	-2.461125669315339e-07	-6.183449302416786e-08	-5.261983001718333e-08	-1.858842614265973e-07	1.078846891454635e-08
